<svg width="100%" viewBox="0 0 680 160" xmlns="http://www.w3.org/2000/svg">
<style>
  .logo-main { font-family: sans-serif; font-size: 38px; font-weight: 500; fill: #1B4332; }
  .logo-sub { font-family: sans-serif; font-size: 11px; font-weight: 400; fill: #52B788; letter-spacing: 3.5px; }
</style>
<g transform="translate(160, 20)">
  <rect x="0" y="0" width="56" height="70" rx="5" fill="#1B4332"/>
  <polygon points="38,0 56,18 38,18" fill="#2D6A4F"/>
  <polyline points="38,0 56,18 38,18 38,0" fill="none" stroke="#52B788" stroke-width="0.8"/>
  <line x1="8" y1="28" x2="30" y2="28" stroke="#52B788" stroke-width="1.3" stroke-linecap="round"/>
  <line x1="8" y1="37" x2="26" y2="37" stroke="#52B788" stroke-width="1.3" stroke-linecap="round"/>
  <line x1="8" y1="46" x2="32" y2="46" stroke="#52B788" stroke-width="1.3" stroke-linecap="round"/>
  <line x1="8" y1="55" x2="22" y2="55" stroke="#52B788" stroke-width="1.3" stroke-linecap="round"/>
  <circle cx="30" cy="28" r="3" fill="#95D5B2"/>
  <circle cx="26" cy="37" r="3" fill="#95D5B2"/>
  <circle cx="32" cy="46" r="3" fill="#95D5B2"/>
  <circle cx="22" cy="55" r="3" fill="#95D5B2"/>
  <line x1="30" y1="28" x2="26" y2="37" stroke="#52B788" stroke-width="0.8" stroke-dasharray="2,2"/>
  <line x1="26" y1="37" x2="32" y2="46" stroke="#52B788" stroke-width="0.8" stroke-dasharray="2,2"/>
  <line x1="32" y1="46" x2="22" y2="55" stroke="#52B788" stroke-width="0.8" stroke-dasharray="2,2"/>
  <text x="74" y="52" class="logo-main">Docu<tspan fill="#52B788">Mind</tspan></text>
  <text x="76" y="74" class="logo-sub">BUILDING INTELLIGENCE</text>
</g>
</svg>